<svg width="525" height="402" viewBox="0 0 525 402" fill="none" xmlns="http://www.w3.org/2000/svg">
<path d="M379.011 139.927C358.107 149.274 357.961 170.836 360.501 180.449C344.516 175.357 332.789 182.026 322.213 202.666C311.637 223.306 335.807 245.411 344.526 248.188C341.055 259.087 337.12 271.439 341.609 282.472C356.08 311.411 382.801 303.063 394.353 295.271C401.881 305.139 421.779 322.735 441.151 314.179C460.522 305.624 462.685 283.424 461.345 273.394C471.407 274.465 493.246 271.231 500.096 249.724C507.425 220.686 486.842 208.421 475.635 205.919C482.783 199.392 492.964 181.667 476.508 162.98C455.938 139.621 433.44 152.462 426.535 159.066C426.438 151.833 405.141 128.243 379.011 139.927Z" fill="url(#paint0_radial_315_1206)"/>
<path d="M371.01 219.214C375.791 210.066 388.318 197.036 400.176 218.1M421.247 224.812C427.822 217.569 442.972 208.362 450.972 229.478M391.844 244.257C395.584 253.452 406.627 267.694 420.875 251.104" stroke="black" stroke-width="5" stroke-linecap="round" stroke-linejoin="round"/>
<path d="M255.746 331.15C248.151 337.931 250.999 347.085 253.372 350.815C245.913 350.815 241.845 355.223 240.149 365.395C238.454 375.566 251.677 381.669 255.746 381.669C255.746 386.755 255.746 392.519 259.136 396.588C269.172 406.895 279.367 399.752 283.209 394.893C287.73 398.057 298.535 402.827 305.587 396.588C312.64 390.349 310.56 380.652 308.639 376.584C313.046 375.679 321.862 371.362 321.862 361.326C321.048 348.035 310.673 345.616 305.587 346.069C307.735 342.339 309.656 333.455 300.162 327.759C288.295 320.639 280.497 329.115 278.463 332.845C277.445 329.794 265.239 322.673 255.746 331.15Z" fill="white"/>
<path d="M270.516 371.79C273.567 374.615 281.908 378.571 290.859 371.79M273.228 353.48V358.905M290.859 353.48V358.905" stroke="black" stroke-width="3" stroke-linecap="round" stroke-linejoin="round"/>
<path d="M69.9155 72.8516C51.8636 96.6084 65.1796 121.348 74.0941 130.748C52.6369 134.923 43.4005 149.879 44.2165 180.088C45.0326 210.296 86.4853 220.451 98.189 218.174C101.035 232.804 104.261 249.384 116.291 259.19C150.929 283.223 176.256 256.971 184.59 240.841C199.365 247.414 233.114 255.086 249.909 233.194C266.704 211.301 255.295 184.571 247.492 173.943C259.665 168.875 282.607 151.522 276.99 122.653C267.211 84.8762 236.013 83.7255 221.636 87.8722C225.726 75.9418 226.281 49.3129 195.784 38.2407C157.663 24.4006 139.975 53.1477 136.21 65.0147C131.577 56.8061 92.4804 43.1557 69.9155 72.8516Z" fill="#FBFBFB" stroke="#FBFBFB" stroke-width="10"/>
<path d="M281.579 127.692L264.995 94.4785C262.611 90.3513 260.218 86.4331 257.798 82.7197C227.666 36.4889 185.302 17.8696 131.66 28.3056C90.2149 36.3685 58.7285 76.8163 49.8462 115.08C45.4916 133.839 43.9356 152.177 44.0351 165.81C33.303 167.898 14.873 151.245 16.9082 135.665C18.9433 120.086 35.9513 108.679 49.8462 115.08C58.7285 76.8163 90.2149 36.3685 131.66 28.3056C185.302 17.8696 227.666 36.4889 257.798 82.7197C266.21 79.3959 285.084 75.9938 293.279 88.9756C301.473 101.958 288.893 120.196 281.579 127.692Z" fill="#71EBBE"/>
<path d="M257.798 82.7197C227.666 36.4889 185.302 17.8696 131.66 28.3056C90.2149 36.3685 58.7285 76.8163 49.8462 115.08M257.798 82.7197C260.218 86.4331 262.611 90.3513 264.995 94.4785L281.579 127.692C288.893 120.196 301.473 101.958 293.279 88.9756C285.084 75.9938 266.21 79.3959 257.798 82.7197ZM49.8462 115.08C45.4916 133.839 43.9356 152.177 44.0351 165.81C33.303 167.898 14.873 151.245 16.9082 135.665C18.9433 120.086 35.9513 108.679 49.8462 115.08Z" stroke="#71EBBE" stroke-width="10" stroke-linecap="round" stroke-linejoin="round"/>
<path d="M108.228 147.821C115.02 153.248 131.551 159.479 143.339 140.99M172.228 132.768C182.081 136.587 193.286 139.389 201.628 123.999M140.183 186.577C153.405 192.103 179.882 196.793 197.306 173.968" stroke="black" stroke-width="10" stroke-linecap="round" stroke-linejoin="round"/>
<defs>
<radialGradient id="paint0_radial_315_1206" cx="0" cy="0" r="1" gradientUnits="userSpaceOnUse" gradientTransform="translate(412.5 226.25) rotate(130.774) scale(107.951)">
<stop offset="0.0288462" stop-color="#E2EEEA"/>
<stop offset="1" stop-color="#57F4BA"/>
</radialGradient>
</defs>
</svg>
